<?xml version="1.0" standalone="no"?>
<!DOCTYPE svg PUBLIC "-//W3C//DTD SVG 20010904//EN"
 "http://www.w3.org/TR/2001/REC-SVG-20010904/DTD/svg10.dtd">
<svg version="1.0" xmlns="http://www.w3.org/2000/svg"
 width="804.000000pt" height="1004.000000pt" viewBox="0 0 804.000000 1004.000000"
 preserveAspectRatio="xMidYMid meet">

<g transform="translate(0.000000,1004.000000) scale(0.100000,-0.100000)"
fill="#000000" stroke="none">
<path d="M3188 9957 c-8 -7 -70 -80 -137 -164 -137 -171 -215 -248 -267 -262
-35 -10 -89 -8 -505 20 l-167 10 -98 -52 c-123 -65 -227 -141 -351 -255 -106
-98 -312 -259 -320 -250 -8 8 14 90 39 144 12 26 54 97 95 158 40 62 73 115
73 118 0 10 -53 6 -120 -10 -157 -36 -401 -201 -456 -307 -22 -41 -44 -167
-44 -248 0 -183 37 -366 100 -496 49 -99 50 -109 10 -88 -42 22 -37 11 8 -16
20 -13 48 -37 61 -54 45 -55 196 -196 239 -221 24 -15 45 -36 48 -50 3 -13 10
-24 15 -24 5 0 9 -5 9 -12 0 -14 -76 -132 -96 -149 -25 -20 -17 16 11 49 14
17 25 36 25 43 0 7 9 22 20 34 l21 22 -36 38 c-40 44 -58 43 -22 -1 28 -34 25
-47 -16 -83 -35 -32 -37 -64 -13 -181 15 -73 49 -497 41 -511 -3 -3 -26 13
-52 37 -69 63 -76 54 -11 -14 59 -62 63 -71 88 -232 21 -133 13 -136 -61 -22
-47 71 -74 101 -92 102 -5 0 0 -15 11 -32 10 -18 28 -49 38 -68 22 -41 24 -42
74 -100 22 -24 42 -51 45 -60 7 -26 35 -239 35 -273 l0 -32 -32 39 c-18 21
-59 88 -90 149 -31 62 -57 103 -58 92 0 -12 4 -25 8 -30 5 -6 15 -26 22 -45
30 -83 73 -158 114 -203 40 -44 46 -57 61 -137 9 -49 15 -94 13 -102 -10 -28
-85 121 -174 342 -19 47 -38 94 -43 105 -5 11 -25 55 -45 97 -53 116 -69 181
-63 252 4 46 3 56 -5 42 -19 -35 -11 -146 17 -236 41 -128 127 -341 188 -466
49 -98 84 -145 118 -156 18 -6 48 -179 68 -388 8 -81 28 -665 35 -1019 1 -34
-4 -46 -19 -55 -302 -170 -807 -581 -1392 -1134 -134 -127 -153 -148 -153
-176 0 -31 1 -32 93 -59 124 -38 121 -37 115 -42 -2 -3 -29 -1 -59 4 -125 22
-149 23 -149 8 0 -11 26 -17 104 -26 56 -6 118 -16 137 -22 19 -6 62 -17 95
-24 34 -7 171 -58 305 -113 341 -139 390 -156 749 -261 370 -108 605 -163 925
-217 176 -30 243 -37 410 -41 334 -9 667 34 846 107 100 42 409 207 559 301
69 42 174 113 234 158 60 44 112 78 116 76 4 -2 10 -125 13 -272 10 -402 26
-772 38 -897 13 -134 21 -497 11 -512 -4 -6 -27 -22 -52 -34 -25 -12 -56 -30
-70 -40 -55 -38 -222 -121 -350 -173 -322 -130 -622 -204 -995 -246 -294 -33
-425 -35 -760 -12 -328 22 -443 36 -700 81 -357 63 -386 76 -580 261 -59 56
-109 99 -112 96 -2 -3 0 -132 6 -287 6 -156 11 -352 11 -437 0 -101 3 -152 10
-148 6 3 13 -1 17 -10 3 -10 0 -20 -6 -25 -7 -4 -13 -11 -13 -16 0 -14 -16 -7
-105 47 -165 100 -342 239 -462 362 -63 65 -192 230 -309 396 -59 83 -67 91
-70 68 -4 -36 108 -200 238 -348 55 -63 100 -117 100 -121 0 -26 -42 9 -182
152 -87 88 -158 153 -158 145 0 -37 429 -460 447 -441 4 3 -3 20 -15 36 -43
58 -22 68 23 11 60 -75 225 -196 420 -306 118 -66 165 -100 165 -117 0 -5 -7
-16 -15 -24 -19 -19 -19 -72 -3 -301 l12 -173 120 1 c77 0 114 4 101 9 -18 8
-17 9 8 9 15 1 27 -3 27 -9 0 -13 37 -13 45 0 3 5 0 10 -7 10 -8 1 -5 7 7 16
16 12 17 16 6 23 -11 7 -10 11 5 20 17 11 16 12 -8 7 -16 -4 -28 -1 -31 7 -4
9 -6 9 -6 0 -2 -21 -21 -14 -21 7 0 11 -3 19 -7 19 -5 -1 -15 -1 -23 0 -11 1
-11 4 -2 13 7 7 12 17 12 22 0 6 -4 4 -9 -3 -8 -12 -11 -9 -17 13 -4 16 -2 31
3 35 11 6 -1 51 -13 51 -3 0 -4 -7 0 -15 3 -8 1 -15 -4 -15 -6 0 -10 7 -10 15
0 9 -6 12 -15 9 -8 -4 -15 -12 -15 -20 0 -8 -4 -14 -10 -14 -5 0 -10 5 -10 11
0 5 -4 8 -8 5 -4 -2 -14 0 -22 5 -13 9 -13 10 0 6 8 -2 23 5 34 14 10 10 23
16 28 13 4 -3 8 11 8 32 0 31 -2 35 -15 24 -8 -7 -15 -9 -15 -6 0 4 -8 3 -17
-2 -19 -11 -49 11 -38 28 3 5 2 10 -3 10 -6 0 -13 8 -16 17 -6 15 -5 15 11 1
24 -20 53 -30 53 -18 0 6 -5 10 -12 10 -6 0 -8 3 -5 7 4 3 3 11 -2 17 -13 17
-22 66 -13 66 5 0 17 -9 27 -20 10 -11 21 -16 24 -11 6 8 54 16 76 11 6 -1 25
-1 44 0 25 1 31 -1 25 -12 -5 -9 -2 -8 11 2 14 12 19 12 23 2 3 -10 7 -10 18
-1 10 8 22 8 44 1 18 -7 32 -7 35 -1 4 5 12 9 18 9 7 0 6 -4 -3 -11 -11 -8 -7
-9 18 -4 23 5 32 3 32 -7 1 -9 4 -8 13 4 9 11 18 14 27 8 8 -5 19 -3 27 6 8 8
20 11 26 7 7 -4 66 -9 131 -10 66 -1 126 -5 133 -7 7 -3 26 0 41 6 15 6 43 12
62 13 19 1 34 6 33 11 -2 11 -1 11 127 22 53 5 106 14 119 21 13 7 36 10 52 7
40 -8 229 37 229 54 0 6 -28 10 -62 10 -85 0 -166 31 -110 42 14 3 12 9 -15
36 -25 26 -40 32 -72 32 -23 0 -40 3 -40 8 3 19 -2 26 -10 13 -8 -12 -12 -12
-26 2 -18 18 -30 23 -21 8 3 -5 -8 -11 -25 -13 -31 -5 -49 6 -27 16 7 4 2 4
-11 2 -15 -3 -32 4 -50 20 -14 13 -33 24 -42 24 -9 0 -22 7 -29 15 -7 8 -18
15 -25 15 -7 0 -15 7 -19 15 -3 8 -12 12 -21 9 -8 -3 -15 -1 -15 5 0 6 -6 8
-14 5 -8 -3 -17 0 -21 5 -3 6 -11 9 -16 5 -6 -3 -7 4 -4 18 6 23 5 23 -72 22
-121 -2 -117 -2 -103 -19 15 -18 -1 -20 -18 -3 -9 9 -12 8 -12 -6 0 -16 -2
-16 -16 -5 -11 9 -14 22 -10 41 4 18 2 27 -4 23 -6 -4 -23 4 -38 16 -15 12
-19 19 -9 16 9 -4 17 -3 17 2 0 5 -8 11 -17 14 -10 2 -27 8 -38 12 -16 5 -17
5 -5 -4 13 -9 13 -11 -1 -11 -9 0 -19 7 -23 15 -3 8 -10 15 -16 15 -6 0 -8 -5
-5 -10 10 -16 -18 -11 -40 7 -16 13 -17 15 -2 10 21 -8 23 11 2 20 -18 6 -26
1 -29 -19 -1 -7 -4 -18 -8 -23 -9 -15 -75 -18 -84 -4 -4 8 -3 9 4 5 7 -4 12
-2 12 3 0 6 5 11 11 11 5 0 8 -4 5 -8 -3 -5 1 -9 9 -9 8 0 15 4 15 9 0 4 -5 8
-11 8 -6 0 -8 8 -4 19 4 13 0 20 -14 24 -11 3 -20 2 -19 -2 3 -30 -4 -37 -32
-33 -17 2 -30 8 -30 13 0 5 -9 9 -20 9 -11 0 -20 -5 -20 -11 0 -5 -5 -7 -10
-4 -5 3 -10 2 -10 -2 0 -5 -8 -9 -19 -9 -12 0 -17 6 -13 18 2 10 -1 18 -7 18
-10 0 -15 -13 -12 -32 0 -4 -6 -5 -14 -2 -8 4 -15 2 -15 -4 0 -13 38 -23 46
-11 9 15 22 10 29 -11 3 -11 9 -19 13 -19 19 3 22 -2 8 -16 -8 -8 -19 -15 -25
-15 -6 0 -11 -4 -11 -10 0 -6 -19 -7 -47 -4 -34 4 -44 3 -33 -5 8 -5 18 -7 22
-5 4 3 16 0 25 -5 17 -10 17 -10 1 -11 -10 0 -18 -5 -18 -10 0 -7 -8 -7 -23 1
-18 9 -20 9 -10 -2 23 -24 15 -46 -17 -46 -16 0 -27 4 -24 9 4 5 -3 4 -15 -4
-27 -16 -27 -32 -1 -25 11 3 18 1 14 -4 -8 -13 10 -11 24 3 7 7 12 9 12 4 0
-4 -7 -15 -16 -23 -15 -15 -14 -18 13 -31 38 -20 38 -19 23 -37 -10 -12 -10
-18 0 -30 10 -12 10 -15 -1 -15 -12 0 -12 -2 -1 -9 11 -7 11 -9 0 -14 -8 -3
-20 4 -26 14 -7 10 -17 19 -22 19 -15 0 -12 -40 4 -46 8 -3 12 -13 8 -26 -5
-21 -5 -21 16 0 24 24 42 28 42 11 0 -5 -4 -8 -9 -5 -5 3 -11 -1 -15 -9 -3 -8
-2 -14 2 -14 4 1 14 1 22 0 13 -1 13 -2 0 -11 -8 -5 -26 -7 -40 -4 l-25 5 28
-25 c26 -24 26 -26 8 -26 -26 0 -83 86 -75 113 3 9 0 17 -6 17 -6 0 -9 4 -6 9
9 13 -35 64 -46 53 -12 -12 1 -42 18 -42 19 0 18 -16 -1 -24 -22 -8 -41 45
-36 102 3 39 5 43 12 25 5 -13 13 -23 18 -23 6 0 8 -6 5 -13 -6 -16 23 -43 33
-33 4 4 1 11 -7 16 -8 6 -11 10 -5 10 5 0 4 5 -3 12 -16 16 -15 41 1 33 6 -4
4 0 -6 8 -20 16 -29 49 -17 57 5 3 10 14 12 24 2 14 -4 22 -22 27 -21 6 -22 7
-5 8 18 1 21 8 20 48 0 34 -4 48 -14 48 -8 0 -16 11 -18 25 -3 18 -1 22 8 13
8 -8 15 -7 28 6 15 14 15 18 2 31 -8 8 -19 15 -25 15 -6 0 -11 11 -13 25 -1
14 -3 32 -5 40 -2 9 11 17 40 23 24 6 41 15 39 21 -3 6 -9 10 -15 9 -8 -2 -8
6 0 27 12 36 32 38 54 6 8 -14 29 -28 45 -31 23 -5 27 -10 19 -20 -13 -16 20
-27 41 -14 11 7 11 9 1 9 -7 0 -10 4 -7 10 4 6 12 6 24 -1 20 -13 18 -74 -3
-62 -6 3 -8 2 -3 -2 13 -15 46 -13 40 2 -6 16 -3 16 41 -2 38 -16 45 -13 24 9
-7 7 -20 11 -30 8 -21 -5 -24 11 -5 27 10 8 19 6 35 -10 12 -11 22 -17 22 -13
0 4 9 -1 19 -10 12 -11 25 -15 33 -10 19 12 37 13 44 3 3 -5 10 -6 16 -3 7 5
9 1 5 -8 -5 -13 1 -16 34 -13 26 2 45 -2 55 -13 15 -15 15 -16 -2 -23 -15 -6
-12 -8 11 -8 32 0 82 17 55 18 -13 1 -13 3 -1 10 8 5 20 7 28 4 7 -3 13 0 13
7 0 11 14 9 70 -12 29 -11 31 -11 28 -1 -2 4 -9 8 -17 10 -15 2 -31 21 -31 38
0 5 7 -1 16 -13 12 -17 19 -20 29 -12 9 8 14 7 18 -4 5 -11 20 -15 56 -13 27
1 47 5 45 9 -5 7 24 6 191 -6 44 -4 121 -8 170 -11 107 -5 217 -14 300 -25 61
-8 370 0 370 10 0 1 18 4 40 6 22 2 56 6 75 9 19 2 84 7 144 10 59 3 116 10
125 15 10 5 26 9 37 9 10 0 59 9 108 20 49 12 92 19 94 16 3 -3 12 1 21 9 17
16 128 39 142 30 5 -3 9 -1 9 5 0 11 79 35 88 27 3 -3 10 -1 17 4 6 5 38 18
71 29 85 28 127 42 147 53 10 5 23 6 29 2 7 -4 8 -3 4 4 -4 7 4 14 21 18 15 3
56 19 90 36 34 17 69 28 78 25 9 -4 15 -1 15 7 0 9 9 13 25 12 13 -2 22 0 20
5 -3 4 4 10 15 14 11 3 20 11 20 16 0 5 8 9 18 9 9 0 28 9 42 20 14 11 33 20
43 20 10 0 15 5 12 10 -8 12 15 13 34 1 11 -7 10 -11 -5 -20 -18 -10 -18 -10
2 -11 11 0 29 -10 40 -22 10 -12 13 -18 7 -14 -8 4 -13 1 -13 -8 0 -9 6 -16
13 -16 7 0 14 -8 15 -17 8 -72 9 -113 1 -113 -5 0 -9 5 -9 12 0 6 -3 8 -6 5
-4 -4 2 -19 12 -34 15 -23 17 -45 15 -133 -3 -126 -5 -147 -15 -157 -5 -5 -6
57 -3 137 4 101 3 136 -4 115 -5 -16 -14 -44 -20 -62 -5 -17 -14 -68 -19 -112
-5 -45 -12 -87 -16 -93 -8 -12 -13 -55 -17 -143 -1 -27 -6 -53 -10 -56 -5 -3
-92 -7 -193 -7 -102 -1 -189 -4 -193 -7 -5 -2 -136 -7 -292 -10 -348 -7 -566
-14 -599 -19 -170 -26 -474 -96 -489 -112 -9 -10 78 1 218 26 147 26 333 24
375 -4 31 -20 96 -28 112 -15 9 7 15 5 23 -8 9 -16 10 -16 16 -2 5 13 23 16
93 17 48 0 110 -4 137 -10 28 -5 61 -11 75 -14 14 -2 36 -6 50 -8 14 -3 36 -5
49 -5 19 -1 21 -4 11 -16 -6 -8 -9 -19 -5 -25 3 -5 -1 -13 -9 -16 -9 -3 -14
-9 -11 -14 2 -4 -8 -5 -23 -3 -21 4 -24 2 -12 -6 8 -5 11 -14 6 -18 -5 -4 -11
-3 -13 3 -2 7 -12 10 -22 7 -10 -3 -22 0 -25 6 -5 7 1 10 16 8 17 -1 24 4 26
22 3 21 1 23 -28 19 -27 -4 -31 -2 -27 14 6 22 -18 25 -27 3 -3 -8 -13 -15
-23 -15 -13 0 -14 -3 -5 -12 17 -17 15 -26 -5 -31 -10 -2 -1 -2 19 0 29 4 39
0 47 -15 12 -23 102 -48 129 -36 9 4 21 6 27 5 9 -2 76 -7 150 -11 35 -2 37
-3 15 -10 -24 -7 -24 -7 10 -14 20 -4 40 -7 45 -6 6 2 15 1 20 0 38 -9 112 -3
123 10 10 12 12 12 10 1 -2 -9 9 -15 29 -18 26 -3 38 2 57 21 l23 26 19 -22
c19 -21 19 -21 -2 -10 -17 9 -24 8 -34 -3 -10 -11 -4 -14 34 -12 45 1 59 10
34 21 -7 2 2 4 20 3 17 -1 32 -4 32 -8 0 -8 79 -4 110 6 12 4 20 2 20 -5 0 -6
-3 -9 -7 -7 -5 3 -15 -2 -22 -11 -13 -14 -12 -15 8 -9 15 3 24 0 28 -10 4 -11
8 -12 13 -2 5 8 8 3 8 -12 0 -13 5 -46 10 -74 5 -27 13 -107 17 -178 5 -95 10
-127 20 -127 15 0 12 161 -6 320 -5 47 -9 97 -9 112 l0 27 68 -5 c81 -5 657
-8 794 -4 54 1 96 6 93 10 -3 4 61 11 143 15 81 3 206 10 277 15 230 16 686
30 1240 37 475 6 519 8 370 16 -193 9 -935 1 -1220 -13 -500 -25 -1078 -46
-1533 -54 -266 -5 -236 -18 -247 104 -27 326 -29 437 -8 416 3 -3 12 -79 18
-168 l12 -163 2 115 c1 131 -12 474 -34 890 -24 446 -70 1402 -78 1619 -2 40
1 45 23 52 24 7 22 10 -10 13 -22 2 -27 98 -30 518 -1 203 -6 358 -11 360 -5
2 -12 17 -14 33 -3 17 -8 41 -11 53 -3 15 -1 21 6 17 5 -3 10 -21 11 -38 l1
-32 9 30 c5 17 8 159 7 317 -2 195 1 291 8 298 17 17 166 28 307 23 116 -4
315 9 352 24 9 3 15 -1 15 -8 0 -8 -18 -20 -41 -27 -86 -27 -319 -142 -369
-183 -14 -11 25 5 85 35 103 50 333 146 351 146 5 0 39 -30 77 -67 73 -72 77
-60 8 19 -23 25 -41 51 -41 56 0 9 91 42 212 76 69 20 65 20 71 -1 3 -10 19
-56 37 -103 66 -179 65 -170 38 -188 -46 -32 -103 -91 -95 -98 4 -4 32 17 62
46 l55 55 23 -29 c25 -30 75 -45 160 -46 26 0 47 -3 47 -6 0 -7 -28 -52 -108
-176 -29 -44 -59 -95 -68 -113 -27 -57 -51 -71 -159 -89 -91 -15 -317 -36
-386 -36 -26 0 -29 -3 -28 -32 1 -30 2 -31 8 -8 7 25 8 25 151 31 129 6 263
20 328 34 30 7 28 -4 -12 -72 -42 -73 -100 -182 -187 -351 -38 -72 -80 -149
-93 -170 -13 -21 -41 -72 -61 -113 -21 -40 -54 -99 -75 -129 -53 -80 -55 -84
-38 -74 59 35 124 132 276 409 124 227 109 198 178 335 76 151 93 183 111 203
9 10 18 25 19 33 5 33 159 319 199 369 35 43 60 84 61 100 3 59 34 119 34 67
0 -38 179 -246 197 -228 3 3 -21 36 -54 73 -98 111 -117 147 -146 268 -15 61
-36 164 -47 230 -12 66 -30 161 -40 210 -10 50 -26 125 -34 168 -27 133 -16
324 23 377 46 64 240 91 336 46 59 -27 137 -91 181 -148 29 -38 30 -42 17 -69
-21 -42 -29 -42 -46 -1 -9 20 -24 55 -34 77 l-17 40 -4 -42 c-2 -24 6 -71 17
-109 12 -36 21 -78 21 -92 0 -14 7 -33 14 -41 10 -11 17 -53 21 -136 4 -66 16
-185 27 -265 28 -197 34 -300 18 -310 -9 -6 -12 -30 -11 -77 2 -79 -6 -92 -79
-117 -57 -20 -109 -20 -137 -1 -11 8 -35 38 -53 67 -18 29 -46 73 -63 97 l-30
44 37 -7 c47 -9 223 -9 238 0 22 14 -23 25 -120 31 -98 6 -204 -3 -186 -15 6
-4 35 -48 67 -98 31 -50 73 -107 92 -127 32 -33 42 -37 83 -37 53 1 114 20
141 44 26 24 44 20 82 -18 48 -48 75 -56 176 -52 102 5 176 21 197 45 16 17
46 135 46 180 0 22 -7 31 -27 40 -22 9 -172 29 -228 31 -5 0 -3 5 5 10 9 6 10
10 3 10 -6 0 -15 -5 -18 -11 -4 -6 -27 -9 -53 -7 -44 3 -46 2 -66 -37 -18 -33
-20 -52 -16 -112 5 -79 -3 -90 -40 -53 -17 17 -20 30 -16 98 5 97 4 92 16 92
5 0 7 -7 4 -15 -7 -16 4 -19 23 -7 8 5 9 29 2 89 -5 48 -5 193 0 359 5 153 7
284 4 291 -3 7 1 29 8 50 7 21 12 68 10 105 l-2 67 43 29 c108 74 212 104 295
85 65 -15 66 -9 2 12 -85 29 -189 6 -296 -66 -18 -11 -33 -17 -33 -12 0 16
109 215 130 238 31 33 155 59 249 51 98 -9 211 -47 281 -94 54 -37 55 -39 54
-83 -3 -69 -96 -337 -124 -354 -6 -3 -10 4 -10 17 0 27 -41 128 -52 128 -11 0
-9 -37 5 -99 16 -67 8 -147 -38 -371 -15 -71 -23 -151 -45 -438 l-9 -123 -56
-106 c-31 -58 -54 -107 -52 -109 6 -6 74 89 97 136 12 25 32 55 43 68 16 18
18 25 9 31 -10 6 -10 14 -3 32 6 13 24 98 41 189 17 91 35 185 41 208 5 24 16
94 24 155 25 189 46 287 87 407 22 63 47 147 57 185 20 81 22 82 152 84 115 2
164 -24 188 -101 14 -43 31 -59 31 -29 0 26 17 36 24 14 2 -10 10 -57 16 -106
7 -48 23 -117 36 -155 16 -44 23 -55 19 -32 -2 19 -11 98 -20 175 -37 351 -39
363 -66 416 -35 70 -95 90 -182 60 -32 -11 -65 -17 -73 -14 -8 3 -43 49 -78
102 -57 88 -68 99 -126 129 -85 43 -150 44 -251 1 -107 -44 -107 -44 -137 -17
-15 13 -51 41 -79 62 -29 21 -53 40 -53 42 0 3 5 2 12 -2 7 -4 8 -3 4 5 -13
21 -115 61 -183 71 -84 14 -232 15 -263 2 -14 -5 -50 -28 -80 -51 -53 -40 -55
-40 -80 -24 -48 32 -75 43 -148 59 -63 14 -84 15 -153 4 l-79 -12 -67 -70
c-38 -39 -88 -89 -112 -112 -67 -63 -204 -219 -225 -257 -18 -32 -16 -31 34
16 29 28 70 67 91 88 39 38 55 45 61 26 3 -8 15 -8 43 -1 85 23 160 25 221 7
70 -20 153 -61 160 -79 3 -7 -28 -77 -69 -157 -41 -79 -76 -150 -79 -158 -3
-9 -29 10 -78 58 -85 82 -172 131 -234 131 -56 0 -105 -15 -133 -42 -12 -12
-23 -18 -23 -13 0 5 -7 0 -15 -11 -8 -10 -15 -14 -15 -7 0 6 5 15 11 19 23 14
-6 63 -85 139 -69 67 -93 84 -149 103 -36 13 -74 21 -85 18 -51 -17 -202 -195
-202 -239 0 -18 2 -17 20 6 11 14 20 29 20 34 0 6 34 46 76 91 72 78 78 82
118 82 35 0 55 -9 112 -49 38 -27 89 -70 113 -95 l45 -45 -3 -90 c-4 -150 52
-417 149 -711 15 -47 31 -100 34 -117 7 -30 5 -33 -16 -33 -13 0 -39 -10 -58
-21 -53 -33 -109 -50 -170 -53 -30 -2 -62 -6 -71 -10 -20 -9 -99 85 -140 166
-16 31 -33 59 -39 63 -5 3 -10 12 -10 19 0 9 21 13 73 15 113 3 136 10 181 55
44 44 96 158 96 211 0 38 -14 22 -30 -35 -18 -67 -71 -161 -103 -184 -23 -17
-43 -20 -135 -21 l-107 0 -42 84 c-23 46 -50 110 -60 142 -13 42 -23 59 -35
59 -29 0 -21 -28 52 -185 39 -82 69 -156 68 -165 -3 -15 38 -71 155 -212 31
-39 57 -74 57 -79 0 -5 -95 -9 -212 -9 -151 0 -209 -3 -201 -11 7 -7 81 -10
216 -9 176 1 207 -2 221 -15 9 -9 16 -20 16 -24 0 -15 -130 -22 -365 -20 -126
1 -246 -2 -265 -5 -19 -3 -47 -8 -62 -10 -41 -7 -46 -12 -52 -64 -9 -62 -15
-214 -9 -208 2 2 11 37 18 78 l13 73 3 -70 c4 -95 -2 -428 -8 -438 -2 -4 -61
46 -131 111 -144 135 -182 168 -232 202 -19 13 -56 44 -82 69 -45 42 -48 49
-48 94 0 27 -7 95 -16 151 -26 162 -15 567 25 906 34 289 36 324 21 315 -17
-11 -11 36 9 63 31 44 156 300 196 402 41 105 109 307 120 358 5 24 3 32 -8
32 -8 0 -25 24 -38 55 -15 34 -30 55 -40 55 -22 0 -104 -90 -155 -169 -37 -58
-54 -74 -54 -50 0 6 22 102 50 212 30 121 54 246 60 312 17 179 32 285 43 292
6 3 15 -1 22 -10 27 -37 213 -84 229 -58 4 5 -15 25 -41 44 -85 63 -182 175
-162 187 8 5 6 15 -5 33 -22 32 -10 39 40 22 78 -26 471 -31 512 -6 20 12 6
31 -84 111 -89 79 -217 227 -211 245 6 19 82 63 206 119 68 31 130 56 137 56
53 0 -16 78 -116 132 -95 51 -228 139 -234 155 -3 7 18 32 46 55 80 66 209
191 220 213 7 12 -4 7 -28 -15 -22 -20 -50 -45 -64 -55 -23 -19 -23 -18 3 14
16 18 53 54 83 79 65 54 104 115 104 164 l0 36 -52 -14 c-80 -21 -238 -41
-493 -64 -256 -23 -255 -23 -272 -21 -7 0 -45 29 -84 64 -76 65 -227 190 -269
220 -14 10 -19 15 -12 12 13 -7 16 4 4 21 -10 16 -114 25 -350 33 l-203 6 29
40 c53 73 96 243 90 362 -3 70 -7 79 -30 60z m-554 -686 c3 -5 -8 -14 -25 -21
-25 -11 -93 -86 -123 -137 -12 -21 2 -34 24 -23 11 6 28 14 39 19 10 5 35 13
55 16 20 4 39 11 42 16 3 5 18 9 33 9 15 0 36 7 47 15 21 16 44 20 44 8 0 -5
-13 -17 -28 -27 -16 -10 -33 -28 -38 -39 -14 -32 -36 -35 -29 -4 4 14 3 27 -2
30 -4 3 -40 -10 -79 -28 -104 -49 -122 -52 -129 -22 -8 30 27 90 91 153 42 43
67 54 78 35z m301 -171 c-16 -4 -39 -8 -50 -9 -16 -1 -17 1 -5 9 8 5 31 9 50
9 l35 -1 -30 -8z m-295 -40 c0 -19 -11 -26 -23 -14 -8 8 3 34 14 34 5 0 9 -9
9 -20z m-1279 -93 c-19 -18 -30 -25 -26 -17 13 25 48 60 54 55 3 -3 -10 -20
-28 -38z m2472 -1570 c12 -26 18 -63 18 -110 0 -64 -4 -80 -42 -157 -44 -86
-151 -210 -182 -210 -8 0 -35 -11 -61 -25 -26 -14 -62 -27 -79 -29 -18 -3 -54
-10 -80 -17 -69 -17 -220 -7 -277 18 -50 22 -106 80 -116 118 -3 14 -3 38 0
53 4 15 10 39 13 54 7 36 12 39 123 86 52 22 138 60 190 85 52 24 110 48 129
52 19 4 48 22 65 40 34 36 104 64 164 66 20 1 48 5 62 9 40 13 54 7 73 -33z
m-2053 -9 c52 -23 165 -81 250 -129 85 -48 195 -104 244 -125 52 -23 108 -56
134 -79 l44 -40 -13 -50 c-13 -48 -17 -51 -78 -81 -81 -39 -246 -79 -326 -79
-150 0 -223 35 -361 172 -116 116 -117 162 -15 426 6 15 14 27 18 27 5 0 51
-19 103 -42z m1210 -303 c0 -29 -28 -45 -41 -24 -16 25 -10 4 12 -41 11 -23
26 -69 33 -101 14 -69 18 -74 44 -58 16 10 26 10 45 2 66 -30 162 -46 247 -40
220 15 352 61 420 147 18 23 34 39 36 38 2 -2 15 -64 30 -138 34 -171 32 -196
-46 -780 -10 -80 -24 -194 -30 -255 -26 -266 -20 -251 -158 -470 -42 -66 -101
-160 -131 -209 -31 -50 -101 -158 -157 -240 -94 -141 -102 -151 -130 -149
-223 16 -321 18 -605 13 -91 -1 -167 3 -203 11 -51 11 -62 18 -90 56 -17 24
-57 71 -89 105 -31 33 -94 115 -140 181 -45 65 -135 187 -199 271 -68 87 -124
170 -133 196 -30 86 -46 206 -51 385 -5 213 -10 285 -24 385 -6 41 -13 132
-16 201 -6 139 -1 163 54 228 34 41 95 58 121 33 15 -16 144 -53 232 -68 38
-6 118 6 204 32 99 30 225 83 225 96 0 4 5 8 11 8 5 0 7 -4 4 -10 -13 -21 30
-9 56 16 30 28 62 27 74 -4 4 -9 11 -89 15 -177 5 -88 16 -245 25 -350 9 -104
14 -200 12 -212 -2 -13 2 -28 10 -35 15 -12 16 -30 -7 267 -6 72 -13 216 -16
320 -7 240 -6 235 -48 235 -19 0 -48 -8 -65 -17 -23 -14 -33 -15 -42 -6 -20
20 -2 46 28 40 31 -6 53 1 53 15 0 7 -16 8 -42 5 -23 -3 -38 -3 -32 1 5 4 14
16 20 27 15 28 72 55 114 55 19 0 54 -9 78 -20 39 -17 46 -18 83 -5 23 8 52
15 65 15 12 0 26 4 29 10 5 8 84 37 108 39 4 1 7 -10 7 -24z m1269 -46 c15
-34 21 -62 18 -83 -5 -32 -65 -198 -97 -271 -10 -22 -30 -71 -45 -110 -44
-114 -141 -308 -165 -333 -24 -26 -42 -25 -46 2 -7 47 68 273 96 291 35 21 65
180 42 220 -7 14 -11 -5 -17 -76 -7 -95 -20 -133 -36 -107 -12 19 -11 131 2
205 8 45 23 81 53 126 47 72 146 186 161 187 6 0 21 -23 34 -51z m2001 -799
c36 -6 83 -18 104 -26 63 -24 176 -95 188 -117 13 -26 -5 -90 -38 -134 -13
-17 -24 -38 -24 -47 0 -47 -12 -46 -69 5 -31 27 -87 66 -125 85 -65 32 -74 34
-173 34 -94 0 -109 -3 -149 -26 -24 -14 -44 -22 -44 -16 0 23 104 223 123 237
25 18 112 20 207 5z m-267 -27 c12 -11 -155 -323 -173 -323 -4 0 -10 9 -13 21
-7 27 150 309 173 309 4 0 10 -3 13 -7z m-411 -123 c27 -15 67 -45 90 -67 74
-70 147 -150 142 -156 -13 -12 21 -239 61 -402 24 -99 56 -238 70 -310 15 -71
31 -134 35 -140 4 -5 10 -27 13 -47 4 -29 2 -40 -11 -49 -15 -9 -15 -10 2 -5
14 5 17 2 11 -11 -3 -10 -10 -39 -15 -64 -8 -43 -52 -151 -71 -174 -5 -7 -40
-8 -106 -2 -106 9 -133 24 -133 73 0 13 -18 78 -40 145 -32 95 -38 124 -29
135 9 12 8 19 -9 37 -26 28 -50 88 -123 317 -79 243 -146 507 -154 600 l-6 75
63 37 c35 20 72 38 83 41 33 7 77 -5 127 -33z m292 -227 c-4 -21 -10 -49 -14
-63 -7 -24 -8 -23 -18 15 -9 32 -9 43 3 62 24 35 37 29 29 -14z m583 -148 c0
-8 -4 -12 -9 -9 -4 3 -8 9 -8 15 0 5 4 9 8 9 5 0 9 -7 9 -15z m51 -220 c3 -65
0 -105 -6 -105 -15 0 -18 18 -21 115 -1 50 -5 99 -8 110 -5 19 -4 19 13 2 16
-14 20 -36 22 -122z m2 -155 c0 -22 -2 -40 -4 -40 -2 0 -6 18 -8 40 -2 22 0
40 4 40 5 0 8 -18 8 -40z m590 -95 c-13 -74 -29 -118 -30 -80 0 26 19 144 27
170 14 42 16 -17 3 -90z m-593 -22 c-3 -10 -5 -2 -5 17 0 19 2 27 5 18 2 -10
2 -26 0 -35z m-973 -158 c4 -11 -2 -15 -21 -15 -21 0 -24 2 -13 15 7 8 16 15
20 15 4 0 10 -7 14 -15z m1331 -175 c38 -6 73 -14 77 -18 10 -10 -19 -103 -48
-156 l-24 -44 -73 -7 c-39 -3 -101 -7 -137 -8 -57 -2 -65 0 -62 16 2 9 -2 17
-8 17 -12 0 -14 126 -1 134 5 3 7 15 4 26 -12 44 0 50 104 50 54 0 129 -5 168
-10z m-2377 -455 c-4 -54 -18 -90 -18 -44 0 32 12 99 17 99 2 0 3 -25 1 -55z
m-3353 -3205 c7 0 15 -6 18 -14 4 -9 0 -13 -11 -11 -9 2 -22 4 -28 4 -7 1 -15
8 -18 17 -5 12 -2 15 10 10 8 -3 22 -6 29 -6z m111 -78 c-18 -16 -18 -16 -6 6
6 13 14 21 18 18 3 -4 -2 -14 -12 -24z m251 -14 c2 -18 0 -20 -7 -8 -12 18
-13 30 -2 30 4 0 9 -10 9 -22z m306 -35 c-7 -2 -19 -2 -25 0 -7 3 -2 5 12 5
14 0 19 -2 13 -5z m-233 -31 c0 -15 -2 -15 -10 -2 -13 20 -13 33 0 25 6 -3 10
-14 10 -23z m-250 -112 c0 -5 -4 -10 -10 -10 -5 0 -10 5 -10 10 0 6 5 10 10
10 6 0 10 -4 10 -10z m-343 -22 c-3 -8 -6 -5 -6 6 -1 11 2 17 5 13 3 -3 4 -12
1 -19z m303 -21 c0 -5 -4 -5 -10 -2 -5 3 -10 14 -10 23 0 15 2 15 10 2 5 -8
10 -19 10 -23z m80 -7 c0 -5 -12 -10 -26 -10 -14 0 -23 4 -19 10 3 6 15 10 26
10 10 0 19 -4 19 -10z m3207 -72 c-2 -13 -4 -3 -4 22 0 25 2 35 4 23 2 -13 2
-33 0 -45z m-3183 31 c-3 -5 -13 -9 -22 -8 -11 0 -12 2 -4 6 6 2 10 9 7 14 -4
5 1 6 9 3 9 -3 13 -10 10 -15z m-114 -9 c0 -16 -27 -29 -47 -24 -17 5 -19 9
-10 19 13 13 57 17 57 5z m474 -16 c8 -22 8 -24 -6 -24 -6 0 -8 3 -5 7 4 3 2
12 -4 20 -7 8 -8 13 -1 13 5 0 13 -7 16 -16z m-761 -13 c2 -10 1 -25 -4 -32
-6 -10 -9 -4 -9 19 0 36 5 42 13 13z m802 0 c3 -5 1 -12 -4 -15 -5 -3 -11 1
-15 9 -6 16 9 21 19 6z m-631 -16 c-4 -8 -8 -15 -10 -15 -2 0 -4 7 -4 15 0 8
4 15 10 15 5 0 7 -7 4 -15z m486 -5 c0 -5 -6 -10 -12 -11 -7 -1 -2 -5 12 -9
22 -7 23 -8 4 -9 -26 -1 -52 24 -32 32 21 9 28 8 28 -3z m-410 -11 c0 -5 -4
-8 -9 -4 -6 3 -14 -3 -20 -12 -9 -16 -10 -16 -11 -1 0 15 12 25 33 27 4 1 7
-4 7 -10z m3340 -5 c0 -8 -5 -12 -10 -9 -6 4 -8 11 -5 16 9 14 15 11 15 -7z
m-9 -61 c-12 -20 -14 -14 -5 12 4 9 9 14 11 11 3 -2 0 -13 -6 -23z m-3304 -8
c0 -8 -4 -12 -9 -9 -5 3 -6 10 -3 15 9 13 12 11 12 -6z m63 -15 c0 -5 -2 -10
-4 -10 -3 0 -8 5 -11 10 -3 6 -1 10 4 10 6 0 11 -4 11 -10z m3029 -12 c0 -13
-3 -18 -5 -11 -3 7 -12 9 -20 6 -8 -3 -14 0 -14 5 0 6 8 13 18 15 9 3 18 5 20
6 1 0 2 -9 1 -21z m131 13 c0 -5 -7 -14 -15 -21 -11 -9 -19 -9 -35 3 -16 11
-18 16 -8 20 22 9 58 8 58 -2z m-60 -57 c0 -16 -9 -18 -30 -4 -13 8 -12 10 3
10 11 0 15 4 11 12 -4 7 -3 8 4 4 7 -4 12 -14 12 -22z m35 6 c4 -6 14 -9 23
-8 12 2 17 -4 17 -19 0 -12 9 -29 20 -37 11 -9 15 -16 8 -16 -6 0 -19 -3 -29
-7 -12 -4 -15 -3 -10 6 6 9 0 10 -20 5 -19 -5 -25 -4 -20 5 4 6 15 11 24 12
10 1 7 4 -8 8 -19 5 -25 14 -25 34 -1 27 9 35 20 17z m-131 -16 c5 -14 4 -15
-9 -4 -17 14 -19 20 -6 20 5 0 12 -7 15 -16z m-1984 -3 c0 -5 -9 -11 -20 -14
-22 -6 -28 8 -7 16 19 8 27 8 27 -2z m2250 -23 c0 -25 -13 -37 -31 -27 -28 14
-24 37 6 35 14 0 25 -4 25 -8z m-160 -13 c0 -16 -20 -24 -40 -16 -26 10 -20
26 11 27 17 1 29 -4 29 -11z m-3393 -18 c17 -20 17 -20 0 -14 -10 4 -22 7 -27
7 -4 0 -10 6 -13 13 -8 21 21 16 40 -6z m3258 13 c4 -6 -5 -10 -19 -10 -14 0
-26 5 -26 10 0 6 9 10 19 10 11 0 23 -4 26 -10z m49 2 c2 -4 -5 -9 -17 -9 -17
-2 -19 0 -7 7 18 12 18 12 24 2z m-2054 -16 c0 -21 -20 -30 -33 -17 -8 8 -8
11 2 11 7 0 9 5 6 10 -3 6 1 10 9 10 9 0 16 -6 16 -14z m1440 -56 c0 -5 -5
-10 -11 -10 -5 0 -7 5 -4 10 3 6 8 10 11 10 2 0 4 -4 4 -10z m390 0 c0 -5 -5
-10 -11 -10 -5 0 -7 5 -4 10 3 6 8 10 11 10 2 0 4 -4 4 -10z m193 0 c51 -5
137 -11 191 -13 57 -2 101 -8 103 -14 6 -18 -17 -19 -137 -11 -149 11 -150 11
-150 19 0 4 -17 6 -37 4 -21 -1 -42 1 -48 5 -5 4 -21 10 -35 13 -50 9 17 7
113 -3z m-2788 -20 c-8 -12 -10 -12 107 -14 54 -1 101 -5 104 -9 10 -10 -473
-8 -521 2 -22 5 -33 10 -25 11 11 1 9 4 -5 10 -12 5 52 9 163 9 120 1 181 -2
177 -9z m2350 -10 c3 -5 -1 -10 -9 -10 -8 0 -18 5 -21 10 -3 6 1 10 9 10 8 0
18 -4 21 -10z m325 -60 c0 -5 -4 -10 -9 -10 -6 0 -13 5 -16 10 -3 6 1 10 9 10
9 0 16 -4 16 -10z m-3099 -27 c13 -16 12 -17 -3 -4 -10 7 -18 15 -18 17 0 8 8
3 21 -13z m70 -140 c-12 -20 -14 -14 -5 12 4 9 9 14 11 11 3 -2 0 -13 -6 -23z
m54 -183 c3 -5 1 -10 -4 -10 -6 0 -11 5 -11 10 0 6 2 10 4 10 3 0 8 -4 11 -10z
m64 -32 l20 -37 -23 9 c-13 5 -27 6 -31 2 -5 -4 -5 4 -2 18 4 14 7 31 7 39 0
18 3 15 29 -31z"/>
<path d="M2804 6978 c-21 -22 -44 -61 -44 -72 0 -13 25 -4 56 19 18 14 39 25
46 26 7 0 3 5 -9 11 -12 6 -23 17 -25 25 -2 11 -8 9 -24 -9z"/>
<path d="M2960 6145 c0 -14 7 -28 15 -31 8 -4 15 -15 15 -25 0 -10 5 -19 10
-19 7 0 6 -8 -1 -22 -11 -21 -11 -22 4 -9 18 15 17 59 -4 104 -16 34 -39 35
-39 2z"/>
<path d="M2405 6080 c-12 -19 6 -99 24 -104 9 -3 50 -4 91 -4 53 1 87 -4 112
-16 20 -10 47 -16 60 -14 22 4 22 5 3 13 -11 4 -43 18 -71 31 -42 18 -58 21
-90 14 -24 -6 -53 -5 -77 1 -38 10 -38 11 -32 50 6 37 -5 53 -20 29z"/>
<path d="M2870 5993 c-41 -2 -79 -9 -85 -14 -13 -13 141 -3 164 11 9 5 12 9 6
8 -5 -1 -44 -4 -85 -5z"/>
<path d="M2645 5758 c-4 -24 -12 -49 -18 -57 -9 -10 -7 -13 8 -10 16 3 21 15
25 57 7 62 -5 70 -15 10z"/>
<path d="M2749 5616 c-2 -2 -49 -11 -104 -20 -55 -10 -151 -33 -214 -52 -63
-18 -123 -34 -135 -34 -25 0 -53 -16 -44 -25 9 -9 126 18 244 56 52 16 118 32
147 35 28 3 76 12 105 21 30 8 72 13 95 11 41 -5 169 -50 315 -110 55 -23 76
-28 85 -19 16 16 0 27 -53 39 -25 6 -76 22 -115 37 -124 46 -199 65 -261 65
-33 0 -63 -2 -65 -4z"/>
<path d="M2674 5388 c-8 -12 20 -36 53 -44 12 -3 32 1 45 10 12 9 30 16 40 16
26 0 22 17 -4 24 -39 10 -126 7 -134 -6z"/>
<path d="M5752 4963 c-12 -2 -20 -8 -17 -13 3 -5 -11 -4 -30 1 -20 6 -45 9
-55 7 -18 -3 -17 -6 7 -43 15 -25 23 -32 20 -18 -4 19 -2 21 18 13 37 -14 139
-22 154 -12 19 13 4 33 -22 31 -43 -4 -77 1 -77 11 0 14 103 13 135 -2 29 -13
38 -8 29 16 -5 13 -19 16 -73 15 -36 -1 -76 -4 -89 -6z"/>
<path d="M5680 4857 c0 -9 14 -42 31 -72 l31 -55 93 0 c52 0 97 4 100 10 4 6
-26 10 -84 10 l-89 0 -41 62 c-23 35 -41 55 -41 45z"/>
<path d="M6625 4682 c29 -13 93 -24 75 -13 -8 5 -33 12 -55 15 -27 4 -33 3
-20 -2z"/>
<path d="M1465 500 c-3 -6 1 -7 9 -4 18 7 21 14 7 14 -6 0 -13 -4 -16 -10z"/>
<path d="M2683 9583 c15 -2 37 -2 50 0 12 2 0 4 -28 4 -27 0 -38 -2 -22 -4z"/>
<path d="M6310 9005 c-458 -56 -691 -113 -915 -227 -115 -58 -188 -113 -286
-215 -141 -146 -208 -308 -209 -500 0 -267 130 -430 364 -454 94 -10 274 4
393 29 85 18 129 40 58 29 -209 -33 -267 -39 -394 -35 -125 3 -140 6 -189 31
-115 60 -169 136 -197 277 -44 215 25 433 192 611 232 246 541 355 1233 435
366 42 619 8 861 -117 134 -69 224 -160 298 -300 32 -59 44 -96 48 -140 5 -54
2 -66 -32 -135 -92 -187 -308 -339 -668 -468 -246 -89 -403 -116 -683 -116
-136 0 -195 -4 -206 -12 -26 -20 -121 -151 -184 -255 -7 -10 -14 -16 -18 -12
-5 5 50 163 80 227 8 18 14 40 12 49 -2 9 -25 -38 -52 -103 -27 -65 -62 -143
-78 -173 -22 -40 -27 -56 -18 -65 8 -8 15 -6 25 9 8 11 23 29 34 40 31 32 151
196 171 236 l19 37 258 4 c233 5 270 8 381 32 344 75 675 237 839 409 97 102
138 186 138 282 0 61 -5 80 -41 155 -117 244 -327 378 -688 440 -153 26 -297
25 -546 -5z"/>
<path d="M7167 8521 c-8 -71 -3 -122 20 -199 16 -54 29 -74 65 -93 18 -10 18
-7 -5 22 -38 50 -55 112 -64 229 l-9 105 -7 -64z"/>
<path d="M6770 8455 c0 -5 5 -17 10 -25 5 -8 10 -10 10 -5 0 6 -5 17 -10 25
-5 8 -10 11 -10 5z"/>
<path d="M5271 8403 c-36 -36 -97 -142 -110 -190 -15 -52 -13 -152 2 -183 7
-15 23 -26 37 -28 23 -2 24 -1 7 11 -27 22 -37 99 -21 168 18 78 68 176 111
217 24 22 30 32 18 32 -9 0 -29 -12 -44 -27z"/>
<path d="M7005 8377 c11 -7 35 -26 53 -44 41 -40 42 -82 1 -97 -76 -26 -144
61 -95 123 9 12 7 12 -13 2 -20 -11 -23 -18 -18 -54 7 -52 53 -97 97 -97 31 0
80 42 80 69 0 40 -69 112 -107 110 -16 0 -16 -1 2 -12z"/>
<path d="M7254 8379 c-4 -7 0 -9 14 -5 58 19 86 -93 36 -139 -20 -18 -23 -25
-11 -25 24 0 57 49 57 86 0 57 -73 120 -96 83z"/>
<path d="M5691 8288 c-1 -15 4 -38 10 -52 9 -19 9 -29 1 -39 -7 -8 -8 -17 -3
-23 5 -5 14 -36 20 -68 11 -61 17 -74 27 -63 3 3 1 21 -5 39 -6 19 -13 56 -14
83 -2 28 -6 57 -9 65 -3 8 -10 31 -16 50 -9 32 -10 33 -11 8z"/>
<path d="M6190 8300 c0 -5 13 -10 29 -10 35 0 45 -12 60 -74 12 -47 11 -51
-11 -68 -48 -37 -87 -30 -89 16 0 19 -1 19 -10 -4 -8 -21 -6 -28 12 -42 27
-23 37 -22 74 2 17 11 33 20 37 20 4 0 17 -18 28 -40 11 -22 25 -40 30 -40 13
0 13 17 0 25 -14 9 -37 63 -54 128 -8 33 -22 67 -32 78 -18 20 -74 27 -74 9z"/>
<path d="M6811 8305 c0 -5 8 -39 19 -73 24 -78 26 -128 4 -136 -24 -9 -62 -7
-69 4 -3 6 -18 10 -33 10 -38 0 -15 -16 38 -27 28 -6 56 -6 74 0 28 9 28 11
23 66 -4 47 -54 186 -56 156z"/>
<path d="M6210 8231 c-14 -4 -26 -15 -28 -25 -4 -18 -3 -18 27 0 17 10 31 22
31 26 0 4 -1 8 -2 7 -2 -1 -14 -4 -28 -8z"/>
<path d="M5526 8169 c-15 -12 -26 -30 -25 -42 1 -21 2 -21 6 -2 9 34 24 45 65
45 24 0 37 4 33 10 -10 17 -51 11 -79 -11z"/>
<path d="M5367 8114 c-3 -4 0 -12 7 -19 7 -8 19 -48 27 -89 7 -42 17 -76 22
-76 5 0 7 10 3 23 -3 12 -13 55 -22 95 -15 68 -22 81 -37 66z"/>
<path d="M5560 8110 c-10 -6 -12 -12 -4 -20 7 -7 16 -5 29 10 14 15 15 20 4
20 -8 0 -21 -5 -29 -10z"/>
<path d="M5286 8055 c-32 -25 -52 -45 -44 -45 13 0 119 89 107 90 -3 0 -32
-20 -63 -45z"/>
<path d="M5496 8088 c-4 -9 -2 -29 6 -45 11 -23 20 -29 56 -31 24 -2 50 2 58
9 25 21 15 28 -17 12 -46 -23 -82 -8 -90 37 -4 26 -7 31 -13 18z"/>
<path d="M4271 7865 c8 -7 197 -10 205 -2 4 4 -41 7 -101 7 -60 0 -106 -2
-104 -5z"/>
<path d="M1195 7214 c-18 -28 -47 -104 -39 -104 3 0 14 21 26 48 11 26 27 55
36 65 8 9 10 17 5 17 -6 0 -18 -12 -28 -26z"/>
<path d="M4291 7185 c-1 -22 3 -56 8 -75 5 -19 12 -48 16 -65 6 -27 8 -28 17
-11 10 17 1 61 -32 166 -7 22 -9 20 -9 -15z"/>
<path d="M1286 6838 c-13 -43 -13 -58 0 -58 13 0 34 37 34 61 0 14 -30 11 -34
-3z"/>
<path d="M4809 6031 c25 -48 61 -142 61 -158 0 -7 -16 -38 -35 -70 -37 -61
-44 -93 -22 -93 8 0 17 19 23 47 6 31 15 49 25 51 13 2 18 -9 23 -58 4 -33 4
-66 1 -73 -4 -6 1 -3 10 8 13 16 15 33 10 90 -4 39 -11 88 -16 110 -12 47 -79
185 -91 185 -5 0 0 -17 11 -39z"/>
<path d="M7002 5940 c21 -11 55 -37 78 -59 43 -41 53 -40 19 3 -19 24 -107 77
-126 76 -4 -1 9 -10 29 -20z"/>
<path d="M7520 5801 c0 -5 13 -11 29 -14 15 -3 53 -29 84 -56 52 -49 84 -68
57 -36 -47 57 -170 133 -170 106z"/>
<path d="M7365 5793 c-16 -3 -34 -9 -40 -14 -6 -6 2 -7 20 -4 17 3 50 10 75
14 41 8 42 9 10 8 -19 0 -48 -2 -65 -4z"/>
<path d="M7155 5740 c3 -5 11 -10 16 -10 6 0 7 5 4 10 -3 6 -11 10 -16 10 -6
0 -7 -4 -4 -10z"/>
<path d="M7706 5626 c-11 -49 -102 -263 -125 -292 -9 -11 -22 -19 -28 -17 -16
6 -53 -15 -53 -28 0 -6 7 -8 15 -5 8 3 22 9 30 12 9 4 15 1 15 -7 0 -15 -172
-361 -231 -464 -19 -33 -40 -72 -48 -87 -17 -34 -27 -35 -71 -5 -19 13 -51 29
-70 35 l-35 12 29 -24 c16 -14 47 -32 68 -42 21 -9 38 -23 38 -29 0 -22 -28
-79 -59 -122 -35 -48 -36 -53 -18 -53 17 0 73 58 86 90 6 14 22 43 35 65 42
68 99 168 118 207 25 52 35 54 57 9 26 -51 126 -177 215 -271 39 -41 79 -85
89 -96 l18 -22 -53 13 c-29 7 -134 40 -232 74 -99 33 -181 59 -183 57 -7 -6
94 -45 258 -100 182 -60 239 -73 239 -55 0 6 -39 53 -88 103 -153 161 -282
332 -266 357 6 10 258 6 432 -7 66 -5 72 -4 72 14 0 17 -10 19 -122 25 -183
10 -347 8 -370 -4 -11 -6 -18 -7 -16 -2 22 44 96 200 127 266 l38 84 139 60
c76 34 154 64 172 68 27 5 32 11 32 34 0 15 -2 30 -5 33 -5 4 -97 -37 -240
-107 -38 -19 -71 -33 -72 -31 -2 1 15 54 37 116 24 67 40 126 38 144 -4 31 -4
31 -12 -8z"/>
<path d="M4490 5005 c0 -14 4 -25 9 -25 5 0 8 8 7 18 -1 15 10 17 103 15 66
-1 99 2 90 8 -8 5 -58 9 -111 9 -98 0 -98 0 -98 -25z"/>
<path d="M6675 4970 c-22 -4 -35 -8 -30 -10 24 -6 181 3 190 11 11 10 -99 10
-160 -1z"/>
<path d="M6758 4943 c6 -2 18 -2 25 0 6 3 1 5 -13 5 -14 0 -19 -2 -12 -5z"/>
<path d="M6078 4603 c-3 -4 -6 -25 -7 -46 -1 -20 -6 -49 -12 -64 -5 -15 -23
-89 -39 -165 -29 -133 -62 -220 -112 -290 -10 -15 -18 -33 -16 -40 1 -7 -6
-26 -16 -41 -30 -44 -33 -158 -8 -230 26 -73 107 -175 163 -206 37 -20 62 -25
159 -29 100 -3 122 -1 170 17 68 26 68 26 73 -1 3 -18 4 -17 3 4 0 19 15 43
56 85 60 63 102 136 113 196 12 64 -14 203 -55 291 -35 77 -37 88 -44 221 -4
77 -11 144 -15 148 -5 5 -6 -54 -3 -129 l5 -138 -46 40 c-38 33 -57 42 -99 47
-135 17 -199 5 -273 -48 -27 -19 -51 -33 -53 -31 -2 2 4 30 12 62 30 116 66
338 57 347 -5 5 -11 5 -13 0z m242 -348 c25 -3 68 -19 97 -35 71 -41 74 -52
67 -344 -5 -235 -13 -286 -40 -286 -6 0 -14 -7 -17 -15 -13 -33 -89 -58 -194
-63 -56 -2 -117 -2 -136 2 -74 14 -201 164 -222 263 -9 44 14 119 75 247 42
87 59 112 103 148 28 23 58 48 64 55 21 20 105 42 138 37 11 -2 40 -6 65 -9z
m215 -175 c21 -41 55 -186 55 -237 0 -47 -24 -126 -49 -160 -19 -27 -46 -40
-38 -19 3 8 7 112 8 230 1 119 3 216 5 216 2 0 10 -13 19 -30z"/>
<path d="M6195 4083 c-46 -11 -87 -37 -100 -64 -23 -44 -20 -163 6 -216 26
-53 82 -101 128 -109 48 -9 134 36 168 88 24 35 25 45 21 124 l-4 85 -45 44
c-39 38 -51 44 -99 48 -30 3 -64 3 -75 0z m136 -30 c33 -20 57 -78 66 -164 7
-65 -8 -100 -62 -148 -29 -25 -44 -31 -82 -31 -43 0 -51 4 -93 48 -48 50 -60
81 -60 156 0 112 41 156 143 156 38 0 69 -6 88 -17z"/>
<path d="M6410 3706 c0 -19 3 -37 8 -40 4 -2 6 13 4 35 -5 48 -12 51 -12 5z"/>
<path d="M6955 4532 c34 -21 104 -42 131 -41 11 0 -8 8 -41 18 -33 9 -70 23
-82 29 -34 19 -41 14 -8 -6z"/>
<path d="M5795 4340 c-15 -22 -32 -40 -36 -40 -5 0 -9 -4 -9 -10 0 -5 6 -10
13 -10 17 0 49 34 41 42 -3 4 2 18 11 32 28 42 10 30 -20 -14z"/>
<path d="M6895 4310 c-38 -4 -91 -13 -117 -20 -45 -12 -46 -13 -34 -34 19 -30
54 -250 72 -461 9 -99 18 -182 20 -184 27 -30 4 287 -35 474 -16 77 -33 150
-36 162 -6 19 -2 23 32 32 63 18 203 24 268 12 66 -12 137 -52 168 -92 13 -19
19 -43 19 -79 0 -51 -2 -54 -63 -116 -35 -35 -69 -64 -76 -64 -32 0 -6 -22 76
-66 115 -60 171 -116 181 -179 9 -61 -16 -100 -89 -136 -122 -61 -235 -62
-397 -5 -113 41 -104 39 -104 28 0 -12 58 -36 150 -63 151 -45 321 -20 413 62
44 38 47 44 47 90 0 89 -42 138 -179 209 -84 44 -90 55 -42 83 15 9 44 34 64
56 30 33 35 47 35 85 0 25 3 50 7 55 10 17 -74 99 -129 125 -59 28 -149 37
-251 26z"/>
<path d="M5850 4168 c3 -62 6 -126 5 -143 l0 -30 -134 -5 c-103 -4 -135 -8
-139 -19 -4 -11 0 -12 14 -6 11 5 71 11 134 13 134 4 150 12 144 70 -2 20 -6
81 -10 135 -3 53 -9 97 -12 97 -4 0 -5 -51 -2 -112z"/>
<path d="M5133 4110 c0 -25 2 -35 4 -22 2 12 2 32 0 45 -2 12 -4 2 -4 -23z"/>
<path d="M6965 4118 c3 -18 7 -59 10 -90 5 -48 10 -58 25 -58 27 0 34 17 10
23 -17 4 -20 14 -20 71 0 63 1 66 24 66 32 0 76 -37 76 -64 0 -12 -7 -31 -15
-43 -14 -20 -13 -21 5 -16 16 4 20 14 20 53 0 47 0 48 -49 69 -73 31 -91 29
-86 -11z"/>
<path d="M5124 4048 c-8 -13 20 -19 46 -10 24 9 23 9 -8 14 -18 3 -35 1 -38
-4z"/>
<path d="M5275 4053 c38 -2 76 -9 84 -16 11 -10 13 -9 9 3 -3 12 -23 15 -84
16 -78 1 -78 1 -9 -3z"/>
<path d="M5372 3919 c0 -98 -2 -110 -27 -150 -40 -64 -65 -89 -110 -110 -33
-15 -36 -19 -16 -19 49 0 107 53 155 140 20 38 24 144 7 210 -7 27 -9 11 -9
-71z"/>
<path d="M4570 3962 c0 -8 27 -42 61 -75 70 -72 63 -48 -10 33 -28 30 -50 49
-51 42z"/>
<path d="M5590 3943 c0 -5 14 -35 30 -67 39 -76 40 -149 4 -261 -38 -120 -56
-134 -238 -186 -44 -13 -74 -25 -67 -27 16 -5 183 44 231 68 47 24 59 45 95
169 20 68 26 106 21 137 -6 50 -54 174 -67 174 -5 0 -9 -3 -9 -7z"/>
<path d="M6997 3743 c-4 -3 -7 -16 -7 -27 0 -20 0 -20 16 2 11 17 25 22 57 22
43 0 110 -27 110 -45 0 -5 -19 -21 -42 -34 -23 -13 -40 -25 -38 -28 8 -7 60
23 82 47 l20 22 -28 24 c-24 20 -39 24 -96 24 -37 0 -71 -3 -74 -7z"/>
<path d="M5014 3558 l1 -142 65 -12 c82 -16 86 -16 74 -4 -5 5 -34 13 -64 17
l-55 8 -6 45 c-3 25 -5 57 -4 72 1 16 2 49 3 74 l2 47 33 -8 c80 -18 108 -22
100 -15 -4 4 -30 13 -58 19 -27 7 -60 19 -71 26 l-22 14 2 -141z"/>
<path d="M7000 3673 c0 -16 35 -43 56 -42 14 0 15 2 4 6 -8 3 -25 15 -37 26
-13 11 -23 16 -23 10z"/>
<path d="M6432 3435 c0 -16 2 -22 5 -12 2 9 2 23 0 30 -3 6 -5 -1 -5 -18z"/>
<path d="M5250 3390 c-13 -9 -13 -10 0 -9 8 0 24 4 35 9 l20 9 -20 0 c-11 0
-27 -4 -35 -9z"/>
<path d="M6432 3380 c0 -14 2 -19 5 -12 2 6 2 18 0 25 -3 6 -5 1 -5 -13z"/>
<path d="M6473 3340 c0 -36 2 -50 4 -32 2 17 2 47 0 65 -2 17 -4 3 -4 -33z"/>
<path d="M7490 3352 c0 -27 -49 -215 -59 -225 -5 -5 -22 17 -40 50 -17 32 -46
75 -64 96 l-32 39 0 -49 c-1 -26 -4 -72 -9 -100 -6 -34 -5 -53 1 -53 6 0 14
33 18 73 8 81 6 81 66 -16 27 -45 66 -73 81 -58 5 5 58 233 58 253 0 4 -4 8
-10 8 -5 0 -10 -8 -10 -18z"/>
<path d="M7105 3295 c-52 -18 -97 -68 -93 -102 2 -14 15 -35 30 -46 23 -17 32
-19 52 -9 14 6 31 21 39 34 15 23 29 138 18 138 -3 -1 -24 -7 -46 -15z m29
-62 c-6 -47 -31 -83 -59 -83 -24 0 -48 38 -41 65 7 27 59 65 88 65 15 0 17 -7
12 -47z"/>
<path d="M6405 3276 c-16 -7 -39 -23 -49 -35 -20 -22 -70 -160 -61 -169 2 -3
7 4 11 14 29 89 38 98 98 89 45 -7 46 -8 46 -46 0 -21 5 -41 10 -44 6 -3 10
-44 10 -89 l0 -84 -627 -5 c-451 -4 -665 -10 -758 -20 -127 -14 -184 -12 -250
11 -45 16 -148 24 -140 12 3 -5 24 -10 45 -10 22 0 69 -10 106 -22 64 -21 70
-21 203 -8 101 10 373 15 1059 17 560 3 922 8 922 13 0 6 -112 11 -270 12
l-270 3 -5 107 c-3 59 -5 111 -6 115 -4 23 3 34 26 43 14 5 25 14 25 20 0 13
-12 13 -44 0 -24 -9 -27 -6 -40 25 -18 42 -24 44 -18 6 3 -20 -1 -30 -13 -35
-20 -7 -65 3 -65 15 0 16 39 48 65 55 14 3 25 10 25 15 0 11 2 11 -35 -5z"/>
<path d="M93 3268 c14 -9 173 -11 165 -2 -3 3 -44 6 -91 7 -47 1 -80 -1 -74
-5z"/>
<path d="M6084 3234 c-30 -32 -34 -41 -34 -92 0 -31 4 -62 8 -68 12 -19 76
-54 97 -54 13 0 2 10 -30 28 -39 21 -51 34 -56 60 -15 76 26 142 88 142 28 0
34 3 23 10 -30 19 -62 10 -96 -26z"/>
<path d="M6605 3260 c3 -5 18 -10 32 -10 25 0 26 -1 19 -56 -3 -31 -13 -69
-21 -84 -19 -36 -19 -46 -1 -31 17 14 36 86 36 135 0 35 1 36 36 36 21 0 33 4
29 10 -3 6 -35 10 -71 10 -41 0 -63 -4 -59 -10z"/>
<path d="M5321 3214 c-12 -15 -21 -34 -21 -43 0 -11 4 -8 13 8 19 38 41 47 71
31 14 -7 26 -18 26 -23 0 -13 -94 -96 -102 -90 -5 2 -8 15 -8 29 0 14 -4 23
-9 20 -7 -5 -4 -84 4 -94 2 -2 66 60 114 111 l23 26 -25 25 c-33 33 -60 33
-86 0z"/>
<path d="M6870 3185 c-12 -31 -20 -59 -16 -62 8 -8 8 -8 29 55 25 72 15 77
-13 7z"/>
<path d="M5498 3213 c-19 -23 -30 -53 -18 -53 5 0 11 9 15 19 10 32 31 44 54
31 30 -15 26 -27 -20 -73 -38 -38 -42 -40 -54 -24 -10 13 -14 15 -17 5 -8 -21
13 -58 26 -47 6 5 26 21 44 35 28 22 62 71 62 88 0 2 -7 12 -16 20 -21 21 -57
20 -76 -1z"/>
<path d="M5697 3214 c-4 -4 -7 -16 -7 -26 0 -10 -9 -36 -20 -58 -23 -45 -27
-84 -7 -77 6 2 11 10 9 17 -2 8 7 39 18 71 21 54 24 90 7 73z"/>
<path d="M5890 3175 c0 -19 -9 -59 -21 -90 -26 -71 -17 -85 12 -19 25 57 37
144 20 144 -6 0 -11 -16 -11 -35z"/>
<path d="M5127 3182 c-17 -19 -77 -144 -77 -162 0 -5 5 -10 10 -10 6 0 10 9
10 19 0 35 32 62 78 65 44 3 44 3 39 -28 -2 -17 -7 -39 -12 -49 -5 -13 -3 -16
8 -11 8 3 19 30 26 64 10 51 10 62 -7 92 -22 38 -51 47 -75 20z m67 -35 c14
-22 -5 -37 -46 -37 -23 0 -28 4 -28 24 0 38 53 48 74 13z"/>
<path d="M5725 3064 l-40 -12 42 -1 c23 -1 44 3 48 8 10 16 -9 18 -50 5z"/>
<path d="M5456 3041 c-4 -7 -5 -15 -2 -18 9 -9 19 4 14 18 -4 11 -6 11 -12 0z"/>
<path d="M1285 2700 c-118 -24 -195 -61 -272 -133 -72 -68 -127 -167 -142
-257 -15 -85 -24 -270 -14 -270 5 0 16 35 25 78 24 115 54 184 119 282 74 111
139 168 254 224 73 36 105 46 165 51 81 7 107 16 96 34 -11 16 -128 12 -231
-9z"/>
<path d="M4234 2669 c-71 -20 -92 -81 -115 -337 -7 -73 -16 -132 -21 -132 -5
0 -29 11 -53 25 -61 36 -130 43 -186 18 -59 -26 -100 -71 -146 -157 -38 -70
-38 -72 -38 -186 0 -108 2 -118 29 -168 40 -72 107 -132 146 -132 38 0 93 23
137 56 40 30 53 25 53 -24 0 -60 10 -68 67 -55 92 22 100 27 112 80 6 26 20
161 31 298 12 138 30 338 40 445 11 107 20 214 20 238 0 37 -3 42 -22 41 -13
0 -37 -5 -54 -10z m-273 -652 c30 -20 34 -28 37 -73 6 -107 -86 -148 -138 -62
-28 46 -26 90 6 127 31 37 50 39 95 8z"/>
<path d="M4810 2620 c-52 -3 286 -7 753 -8 559 -1 847 1 847 8 0 11 -1432 11
-1600 0z"/>
<path d="M2578 2533 c-19 -3 -30 -13 -38 -36 -14 -40 -60 -316 -60 -362 0 -43
-9 -48 -53 -30 -20 8 -60 18 -90 21 -148 17 -236 -111 -224 -327 3 -69 11
-107 26 -136 23 -46 71 -90 107 -99 36 -9 98 3 138 27 41 24 53 20 64 -24 10
-40 29 -44 73 -15 30 21 37 34 56 108 39 151 59 348 68 658 l6 222 -23 -1
c-13 -1 -35 -4 -50 -6z m-180 -560 c29 -41 34 -66 23 -113 -31 -136 -181 -111
-181 31 0 62 43 108 102 109 29 0 41 -6 56 -27z"/>
<path d="M1225 2476 c-84 -38 -116 -147 -70 -237 47 -89 204 -70 251 30 19 40
20 111 1 149 -25 53 -125 85 -182 58z"/>
<path d="M5123 2293 c9 -2 25 -2 35 0 9 3 1 5 -18 5 -19 0 -27 -2 -17 -5z"/>
<path d="M5013 2283 c15 -2 37 -2 50 0 12 2 0 4 -28 4 -27 0 -38 -2 -22 -4z"/>
<path d="M4820 2272 c0 -4 19 -6 43 -4 70 5 76 10 15 11 -32 0 -58 -2 -58 -7z"/>
<path d="M3370 2206 c-68 -19 -121 -49 -168 -97 -58 -59 -82 -127 -82 -234 0
-131 42 -215 127 -256 37 -18 56 -21 107 -16 154 14 269 96 240 171 -9 23 -39
19 -124 -14 -88 -35 -142 -38 -170 -10 -28 28 -59 94 -62 132 l-3 33 95 3
c115 3 241 27 257 48 19 25 27 137 13 179 -23 70 -113 93 -230 61z m89 -115
c37 -35 41 -68 9 -76 -54 -11 -184 -22 -191 -15 -11 10 48 77 88 102 41 25 58
23 94 -11z"/>
<path d="M6475 2144 c-11 -2 -139 -8 -285 -14 -146 -6 -364 -17 -485 -25 -121
-8 -368 -22 -548 -29 -181 -8 -332 -17 -335 -21 -4 -4 79 -4 183 -1 105 4 348
11 540 16 193 6 379 12 415 15 36 3 203 14 371 25 312 20 444 39 259 38 -52 0
-104 -2 -115 -4z"/>
<path d="M1773 2111 c-23 -11 -46 -29 -53 -40 -14 -27 -28 -26 -58 2 -20 19
-34 22 -93 21 -38 0 -74 -5 -80 -11 -10 -10 4 -417 17 -481 3 -17 17 -38 30
-47 34 -22 107 -31 121 -14 6 8 23 79 37 159 31 178 42 216 67 241 22 22 48
24 92 6 57 -24 60 -33 62 -201 1 -111 5 -159 14 -170 16 -19 74 -21 89 -3 19
23 34 171 30 307 -3 124 -5 138 -27 169 -29 41 -111 81 -166 81 -22 0 -59 -9
-82 -19z"/>
<path d="M2842 2099 c-66 -26 -147 -104 -161 -157 -6 -20 -11 -77 -11 -126 0
-73 4 -95 22 -128 47 -84 146 -110 244 -64 60 28 84 58 84 103 0 30 -3 33 -30
33 -18 0 -47 -12 -72 -30 -22 -16 -47 -30 -54 -30 -14 0 -57 53 -68 84 -13 36
2 56 42 56 20 0 72 5 115 12 88 13 94 19 101 94 15 144 -72 206 -212 153z m94
-97 c17 -12 24 -40 11 -50 -17 -13 -100 -23 -116 -13 -16 10 -1 44 27 60 20
12 62 14 78 3z"/>
<path d="M1142 2028 c-12 -6 -25 -22 -29 -36 -8 -34 4 -421 15 -457 l9 -30 90
1 c157 3 185 35 184 215 0 110 -3 136 -23 242 -8 44 -15 57 -29 57 -10 0 -21
5 -24 10 -8 13 -164 12 -193 -2z"/>
<path d="M6620 1669 c-118 -4 -424 -12 -680 -18 -584 -14 -736 -21 -695 -33
17 -5 161 -7 320 -4 160 3 441 8 625 11 388 7 879 22 1030 32 96 7 101 8 55
14 -63 9 -376 8 -655 -2z"/>
<path d="M0 1581 c0 -8 181 -93 187 -88 4 4 -67 42 -134 72 -29 13 -53 21 -53
16z"/>
<path d="M6220 1390 c-268 -4 -180 -6 360 -6 393 -1 695 2 670 7 -48 8 -448 8
-1030 -1z"/>
<path d="M6740 1180 c-102 -15 -249 -30 -289 -30 -23 0 -41 -4 -41 -10 0 -13
-3 -13 202 5 171 16 276 30 286 40 8 7 -94 4 -158 -5z"/>
<path d="M1330 1111 c0 -5 5 -13 10 -16 6 -3 10 -2 10 4 0 5 -4 13 -10 16 -5
3 -10 2 -10 -4z"/>
<path d="M1395 1100 c-10 -17 5 -30 35 -30 15 0 30 -6 33 -12 3 -7 5 -4 4 8
-1 14 -6 20 -18 17 -9 -3 -23 3 -32 11 -10 10 -18 12 -22 6z"/>
<path d="M1320 1076 c0 -2 7 -7 16 -10 8 -3 12 -2 9 4 -6 10 -25 14 -25 6z"/>
<path d="M1238 1063 c7 -3 16 -2 19 1 4 3 -2 6 -13 5 -11 0 -14 -3 -6 -6z"/>
<path d="M1482 1045 c-7 -8 -9 -15 -4 -15 5 0 15 7 22 15 16 19 -1 19 -18 0z"/>
<path d="M1306 1038 c3 -4 12 -8 20 -8 8 0 14 4 14 8 0 4 -9 8 -19 8 -11 0
-17 -4 -15 -8z"/>
<path d="M1390 1035 c-11 -13 -10 -14 6 -8 17 6 18 5 4 -13 -14 -17 -14 -18 2
-6 9 8 14 20 11 28 -6 18 -8 17 -23 -1z"/>
<path d="M1200 1036 c0 -2 7 -6 15 -10 8 -3 15 -1 15 4 0 6 -7 10 -15 10 -8 0
-15 -2 -15 -4z"/>
<path d="M1513 1024 c-3 -10 -13 -14 -25 -11 -16 5 -17 3 -7 -9 9 -11 15 -12
26 -3 11 9 17 8 28 -7 9 -12 14 -14 15 -6 0 7 5 10 10 7 6 -3 10 -4 10 0 0 3
-12 10 -26 15 -14 6 -22 14 -19 20 3 5 4 10 0 10 -3 0 -8 -7 -12 -16z"/>
<path d="M1172 943 c-25 -5 -25 -26 0 -31 9 -2 18 6 21 18 3 11 4 19 4 19 -1
-1 -12 -4 -25 -6z"/>
<path d="M1670 895 c-19 -23 -8 -26 19 -4 16 13 18 19 8 19 -8 0 -20 -7 -27
-15z"/>
<path d="M2108 733 c7 -3 16 -2 19 1 4 3 -2 6 -13 5 -11 0 -14 -3 -6 -6z"/>
<path d="M60 621 c-22 -44 -44 -82 -50 -86 -5 -3 -10 -23 -10 -43 0 -22 4 -32
8 -25 6 9 23 4 67 -19 100 -52 284 -178 309 -211 30 -40 52 -104 61 -179 4
-32 12 -58 17 -58 13 0 5 60 -20 150 -22 84 -63 126 -243 247 -74 50 -141 99
-149 108 -11 14 -8 28 28 106 22 49 36 89 31 89 -5 0 -27 -36 -49 -79z"/>
<path d="M7814 583 c-4 -32 -7 -61 -6 -66 2 -7 -23 -162 -37 -232 -14 -67 -61
-237 -71 -256 -13 -24 -13 -29 5 -29 8 0 19 17 26 43 37 137 68 281 74 341 11
109 12 110 85 111 40 0 65 4 67 12 3 8 -16 13 -64 15 l-68 3 3 58 c2 31 2 57
-1 57 -3 0 -9 -26 -13 -57z"/>
<path d="M3500 600 c0 -5 9 -9 20 -7 31 5 36 17 7 17 -15 0 -27 -4 -27 -10z"/>
<path d="M3235 590 c-3 -5 -1 -10 4 -10 6 0 11 5 11 10 0 6 -2 10 -4 10 -3 0
-8 -4 -11 -10z"/>
<path d="M3560 590 c0 -5 7 -10 15 -10 8 0 15 5 15 10 0 6 -7 10 -15 10 -8 0
-15 -4 -15 -10z"/>
<path d="M3595 560 c-3 -5 1 -10 9 -10 9 0 16 5 16 10 0 6 -4 10 -9 10 -6 0
-13 -4 -16 -10z"/>
<path d="M3783 553 c-13 -5 -6 -33 9 -33 5 0 7 4 4 9 -4 5 -1 11 6 13 7 3 8 7
3 10 -6 3 -15 3 -22 1z"/>
<path d="M3210 539 c0 -5 11 -9 25 -9 14 0 25 4 25 9 0 5 -11 9 -25 9 -14 0
-25 -4 -25 -9z"/>
<path d="M3603 524 c-15 -16 -16 -24 -4 -24 8 0 24 30 19 35 -2 2 -9 -3 -15
-11z"/>
<path d="M3515 520 c-3 -5 3 -10 15 -10 12 0 18 5 15 10 -3 6 -10 10 -15 10
-5 0 -12 -4 -15 -10z"/>
<path d="M6403 471 c-133 -3 -245 -10 -250 -15 -8 -8 303 -2 707 14 l185 7
-200 0 c-110 -1 -309 -3 -442 -6z"/>
<path d="M7850 448 c0 -34 -31 -169 -75 -323 -31 -113 -32 -125 -1 -125 19 0
24 6 29 38 3 20 17 100 31 177 29 154 39 252 25 261 -5 3 -9 -10 -9 -28z"/>
<path d="M0 396 c0 -21 5 -36 12 -36 10 0 40 -21 178 -125 95 -72 133 -84 85
-27 -14 17 -54 44 -89 60 -73 34 -153 103 -158 134 -5 38 -28 33 -28 -6z"/>
<path d="M5570 421 c0 -5 -10 -13 -22 -17 -130 -39 -208 -112 -229 -212 -6
-32 -15 -62 -20 -67 -16 -21 -30 -108 -19 -119 7 -7 10 -4 10 11 0 24 36 141
49 157 4 6 8 26 8 44 0 37 23 66 98 121 111 83 118 59 14 -50 -83 -86 -109
-129 -128 -211 -15 -66 -14 -78 9 -78 16 0 20 7 20 38 0 82 33 151 115 242 22
25 50 58 61 74 20 28 22 28 31 10 6 -10 18 -97 28 -191 17 -158 20 -173 38
-173 18 0 19 5 13 53 -4 28 -16 96 -27 149 -18 93 -25 175 -18 207 2 8 -4 17
-13 19 -10 2 -18 -1 -18 -7z"/>
<path d="M125 360 c40 -41 52 -49 39 -27 -14 23 -59 67 -68 67 -6 0 8 -18 29
-40z"/>
<path d="M1225 390 c-3 -5 -1 -10 4 -10 6 0 11 5 11 10 0 6 -2 10 -4 10 -3 0
-8 -4 -11 -10z"/>
<path d="M1245 379 c-4 -11 -4 -23 -2 -26 9 -8 27 7 27 22 0 23 -18 27 -25 4z"/>
<path d="M1360 370 c0 -5 5 -10 11 -10 5 0 7 5 4 10 -3 6 -8 10 -11 10 -2 0
-4 -4 -4 -10z"/>
<path d="M1525 370 c-3 -6 1 -7 9 -4 18 7 21 14 7 14 -6 0 -13 -4 -16 -10z"/>
<path d="M1290 355 c0 -8 2 -15 4 -15 2 0 6 7 10 15 3 8 1 15 -4 15 -6 0 -10
-7 -10 -15z"/>
<path d="M1260 284 c0 -8 5 -12 10 -9 6 4 8 11 5 16 -9 14 -15 11 -15 -7z"/>
<path d="M1325 290 c3 -5 10 -10 16 -10 5 0 9 5 9 10 0 6 -7 10 -16 10 -8 0
-12 -4 -9 -10z"/>
<path d="M200 286 c0 -2 8 -10 18 -17 15 -13 16 -12 3 4 -13 16 -21 21 -21 13z"/>
<path d="M1222 274 c10 -10 20 -15 24 -12 3 4 -5 12 -18 18 -22 12 -22 12 -6
-6z"/>
<path d="M2627 283 c-2 -5 -5 -70 -6 -145 -2 -134 -1 -138 19 -138 20 0 21 4
19 133 -1 72 -4 138 -6 145 -6 13 -20 16 -26 5z"/>
<path d="M1327 233 c-10 -9 -9 -23 2 -23 5 0 11 7 15 15 5 15 -5 20 -17 8z"/>
<path d="M1292 199 c-9 -14 -8 -21 3 -33 13 -13 13 -15 -6 -21 -19 -6 -19 -8
-3 -20 19 -13 54 -9 66 9 11 16 10 38 -2 31 -6 -3 -7 1 -4 9 3 9 1 16 -4 16
-6 0 -17 6 -25 14 -11 12 -15 11 -25 -5z m33 -19 c-3 -5 -10 -10 -16 -10 -5 0
-9 5 -9 10 0 6 7 10 16 10 8 0 12 -4 9 -10z"/>
<path d="M1260 195 c0 -8 2 -15 4 -15 2 0 6 7 10 15 3 8 1 15 -4 15 -6 0 -10
-7 -10 -15z"/>
</g>
</svg>
